<svg xmlns="http://www.w3.org/2000/svg" viewBox="0 0 700 700" width="36" height="36">
  <rect width="700" height="700" rx="350" fill="#17A1FF"/>
  <g transform="translate(87.5,612.5) scale(0.075,-0.075)" fill="#FFFFFF" stroke="none">
    <path d="M2950 5793 l-1 -328 -299 -244 -299 -244 67 -55 c37 -30 172 -140 300
-245 l232 -190 0 -713 0 -714 -435 0 -435 0 0 1530 0 1530 435 0 435 0 0 -327z
m1969 0 l0 -328 -301 -244 c-238 -195 -297 -247 -286 -255 8 -6 144 -117 301
-245 l287 -235 0 -713 0 -713 -435 0 -435 0 0 1530 0 1530 435 0 435 0 -1
-327z m-3324 -3248 c408 -492 957 -796 1600 -887 134 -19 503 -16 646 5 598
89 1131 383 1530 844 52 60 98 108 104 107 14 -1 534 -367 535 -376 0 -15
-145 -184 -264 -307 -523 -535 -1204 -859 -1961 -932 -195 -19 -586 -6 -775
24 -621 102 -1167 363 -1632 781 -102 92 -308 317 -364 398 -27 38 -27 39 -8
52 372 263 520 366 525 364 3 -2 32 -34 64 -73z"/>
  </g>
</svg>
