<svg width="16" height="16" viewBox="0 0 16 16" fill="none" xmlns="http://www.w3.org/2000/svg">
<path d="M7.99989 13.3523C8.96154 13.3523 9.85819 13.1065 10.6915 12.6148C11.4921 12.1563 12.156 11.4927 12.6148 10.6923C13.1065 9.85903 13.3523 8.96154 13.3523 7.99989C13.3523 7.03824 13.1065 6.14159 12.6148 5.30827C12.1563 4.5077 11.4927 3.84381 10.6923 3.38497C9.85903 2.89332 8.96154 2.64749 7.99989 2.64749C7.03824 2.64749 6.14159 2.89332 5.30827 3.38497C4.5077 3.84346 3.84381 4.50707 3.38497 5.30744C2.89332 6.14076 2.64749 7.03824 2.64749 7.99989C2.64749 8.96154 2.89332 9.85819 3.38497 10.6915C3.84346 11.4921 4.50707 12.156 5.30744 12.6148C6.14076 13.1065 7.03824 13.3523 7.99989 13.3523ZM7.99989 1.33334C9.21821 1.33334 10.3449 1.63751 11.3815 2.24666C12.3713 2.80911 13.1907 3.62852 13.7531 4.61829C14.3586 5.6418 14.6743 6.81072 14.6664 7.99989C14.6743 9.18906 14.3586 10.358 13.7531 11.3815C13.1907 12.3713 12.3713 13.1907 11.3815 13.7531C10.358 14.3586 9.18906 14.6743 7.99989 14.6664C6.81072 14.6743 5.6418 14.3586 4.61829 13.7531C3.62996 13.1814 2.81144 12.3571 2.24666 11.3648C1.64274 10.3468 1.32704 9.18361 1.33334 7.99989C1.33334 6.79242 1.63751 5.67077 2.24666 4.63495C2.82068 3.64407 3.64407 2.82068 4.63495 2.24666C5.65304 1.64274 6.81618 1.32704 7.99989 1.33334ZM7.34324 4.64995H8.65655V8.65655H7.34324V4.64995ZM7.34324 10.0032H8.65655V11.349H7.34324V10.0032Z" fill="#FF0322"/>
</svg>
